<?xml version="1.0" encoding="UTF-8"?>
<svg id="Layer_2" data-name="Layer 2" xmlns="http://www.w3.org/2000/svg" viewBox="0 0 496.45 782.88">
  <defs>
    <style>
      .cls-1 {
        fill: #232323;
      }

      .cls-2 {
        fill: #536ee5;
      }
    </style>
  </defs>
  <g id="Layer_1-2" data-name="Layer 1">
    <g>
      <polygon class="cls-2" points="354.36 212.78 283.53 251.02 283.53 0 354.62 35.46 354.36 212.78"/>
      <polygon class="cls-2" points="141.66 110.48 141.66 181.31 212.49 145.9 212.49 75.07 141.66 110.48"/>
      <polygon class="cls-2" points="141.66 393.8 212.49 358.39 212.49 216.73 141.66 252.14 141.66 393.8"/>
      <polygon class="cls-2" points="70.83 500.05 70.83 446.93 70.83 145.9 0 181.31 0 482.34 0 606.29 70.83 570.88 141.66 535.46 212.49 500.05 212.49 429.22 70.83 500.05"/>
      <polygon class="cls-1" points="283.76 534.78 283.76 676.44 354.59 711.85 354.59 570.19 283.76 534.78"/>
      <polygon class="cls-1" points="354.59 428.29 283.76 392.87 283.76 463.7 354.59 499.12 354.59 428.29"/>
      <polygon class="cls-1" points="425.62 321.87 354.15 286.4 283.76 321.87 425.62 392.03 425.62 747.46 496.45 782.88 496.45 427.45 496.45 357.33 425.62 321.87"/>
    </g>
  </g>
</svg>